<svg xmlns="http://www.w3.org/2000/svg" width="26" height="26" viewBox="0 0 26 26" fill="none">
<path d="M23.9166 18.114H6.41663C6.08511 18.114 5.76716 17.9777 5.53274 17.7351C5.29832 17.4924 5.16663 17.1633 5.16663 16.8202C5.16663 16.477 5.29832 16.1479 5.53274 15.9053C5.76716 15.6626 6.08511 15.5263 6.41663 15.5263H19.4666C20.3024 15.5264 21.1143 15.2374 21.7733 14.7053C22.4324 14.1731 22.9007 13.4284 23.1041 12.5893L25.1666 4.1921C25.2134 4.00114 25.2175 3.80163 25.1785 3.6088C25.1395 3.41596 25.0585 3.23489 24.9416 3.07939C24.8201 2.91989 24.6639 2.79227 24.4858 2.70686C24.3078 2.62144 24.1128 2.58063 23.9166 2.58772H6.11663C5.85873 1.83269 5.38154 1.1787 4.75046 0.715425C4.11938 0.252145 3.36531 0.00225068 2.59163 0H1.41663C1.08511 0 0.767163 0.136317 0.532742 0.378963C0.298322 0.621608 0.166626 0.950707 0.166626 1.29386C0.166626 1.63701 0.298322 1.96611 0.532742 2.20876C0.767163 2.4514 1.08511 2.58772 1.41663 2.58772H2.59163C2.87717 2.57911 3.15695 2.67199 3.38438 2.85091C3.61182 3.02982 3.77319 3.28398 3.84163 3.57105L3.91663 4.1921L6.07913 12.9386C5.08456 12.9849 4.14852 13.4383 3.4769 14.199C2.80529 14.9597 2.45312 15.9654 2.49788 16.9948C2.54263 18.0243 2.98064 18.9932 3.71555 19.6884C4.45046 20.3836 5.42206 20.7481 6.41663 20.7018H6.64163C6.43605 21.288 6.36998 21.917 6.44904 22.5353C6.52809 23.1536 6.74993 23.7431 7.09577 24.2539C7.44161 24.7646 7.90127 25.1816 8.43582 25.4695C8.97036 25.7573 9.56406 25.9076 10.1666 25.9076C10.7692 25.9076 11.3629 25.7573 11.8974 25.4695C12.432 25.1816 12.8916 24.7646 13.2375 24.2539C13.5833 23.7431 13.8052 23.1536 13.8842 22.5353C13.9633 21.917 13.8972 21.288 13.6916 20.7018H16.6416C16.436 21.288 16.37 21.917 16.449 22.5353C16.5281 23.1536 16.7499 23.7431 17.0958 24.2539C17.4416 24.7646 17.9013 25.1816 18.4358 25.4695C18.9704 25.7573 19.5641 25.9076 20.1666 25.9076C20.7692 25.9076 21.3629 25.7573 21.8974 25.4695C22.432 25.1816 22.8916 24.7646 23.2375 24.2539C23.5833 23.7431 23.8052 23.1536 23.8842 22.5353C23.9633 21.917 23.8972 21.288 23.6916 20.7018H23.9166C24.2481 20.7018 24.5661 20.5654 24.8005 20.3228C25.0349 20.0801 25.1666 19.751 25.1666 19.4079C25.1666 19.0647 25.0349 18.7356 24.8005 18.493C24.5661 18.2504 24.2481 18.114 23.9166 18.114ZM22.3166 5.17544L20.6791 11.9553C20.6107 12.2423 20.4493 12.4965 20.2219 12.6754C19.9944 12.8543 19.7147 12.9472 19.4291 12.9386H8.64163L6.76663 5.17544H22.3166ZM10.1666 23.2895C9.9194 23.2895 9.67772 23.2136 9.47216 23.0714C9.2666 22.9292 9.10639 22.7272 9.01178 22.4908C8.91717 22.2543 8.89241 21.9942 8.94064 21.7432C8.98888 21.4922 9.10793 21.2617 9.28274 21.0807C9.45756 20.8998 9.68029 20.7765 9.92276 20.7266C10.1652 20.6767 10.4166 20.7023 10.645 20.8002C10.8734 20.8982 11.0686 21.064 11.206 21.2768C11.3433 21.4896 11.4166 21.7397 11.4166 21.9956C11.4166 22.3388 11.2849 22.6679 11.0505 22.9105C10.8161 23.1532 10.4981 23.2895 10.1666 23.2895ZM20.1666 23.2895C19.9194 23.2895 19.6777 23.2136 19.4722 23.0714C19.2666 22.9292 19.1064 22.7272 19.0118 22.4908C18.9172 22.2543 18.8924 21.9942 18.9406 21.7432C18.9889 21.4922 19.1079 21.2617 19.2827 21.0807C19.4576 20.8998 19.6803 20.7765 19.9228 20.7266C20.1652 20.6767 20.4166 20.7023 20.645 20.8002C20.8734 20.8982 21.0686 21.064 21.206 21.2768C21.3433 21.4896 21.4166 21.7397 21.4166 21.9956C21.4166 22.3388 21.2849 22.6679 21.0505 22.9105C20.8161 23.1532 20.4981 23.2895 20.1666 23.2895Z" fill="#868686"/>
<circle cx="10.1666" cy="19.7061" r="1.25" fill="#868686"/>
<circle cx="20.1666" cy="19.7061" r="1.25" fill="#868686"/>
<path d="M6.41663 2.83105H23.2916L21.4166 10.9561H8.29163L6.41663 2.83105Z" fill="#868686"/>
</svg>