<svg width="107" height="107" viewBox="0 0 107 107" fill="none" xmlns="http://www.w3.org/2000/svg">
<circle cx="53.5" cy="53.5" r="53.5" fill="#F58100"/>
<path d="M58.5588 85.8163C55.4588 85.8163 52.8921 84.5663 50.8588 82.0663C48.8255 79.533 47.8088 76.233 47.8088 72.1663C47.8088 68.0996 48.5088 64.3996 49.9088 61.0663C51.3088 57.6996 53.3088 54.9663 55.9088 52.8663C58.5088 50.7663 61.2755 49.7163 64.2088 49.7163C67.1755 49.7163 69.5588 50.383 71.3588 51.7163C73.1921 53.0496 74.1088 54.6496 74.1088 56.5163C74.1088 58.3496 73.5588 59.9163 72.4588 61.2163C71.3921 61.2163 70.1921 60.983 68.8588 60.5163C67.5255 60.0496 66.5255 59.483 65.8588 58.8163L66.8088 53.7663C66.0088 53.2663 64.9588 53.0163 63.6588 53.0163C61.6255 53.0163 59.8255 54.7663 58.2588 58.2663C56.6921 61.733 55.9088 66.0163 55.9088 71.1163C55.9088 74.483 56.4588 76.933 57.5588 78.4663C58.6921 79.9663 60.0588 80.7163 61.6588 80.7163C64.2921 80.7163 66.8255 79.483 69.2588 77.0163L71.3088 78.8663C70.9421 79.3996 70.2755 80.133 69.3088 81.0663C68.3421 81.9996 67.3921 82.783 66.4588 83.4163C65.5255 84.0163 64.3421 84.5663 62.9088 85.0663C61.4755 85.5663 60.0255 85.8163 58.5588 85.8163Z" fill="white"/>
<path d="M33.3201 19.9391C27.6987 23.398 23.7978 28.5306 23.0885 33.3984C23.0237 33.8166 22.9754 34.1716 22.9752 34.1875C22.972 34.197 22.8011 34.1537 22.5861 34.0846C22.3806 34.0187 21.9973 33.9604 21.7466 33.9638C21.3089 33.9556 21.242 33.9802 20.4574 34.3617C19.7141 34.7309 19.5928 34.8057 19.2749 35.1575C18.774 35.701 18.3889 36.4013 18.0936 37.3026C17.0966 40.3131 17.9376 43.8115 20.1948 46.0374C21.3469 47.1744 22.4029 47.8055 24.5958 48.6339C26.8393 49.4851 27.9977 49.7428 29.8975 49.806C31.1503 49.8521 33.5509 49.6639 33.8953 49.4964C34.0421 49.4251 34.2645 49.1039 34.5656 48.5391C35.848 46.1318 38.1376 44.482 42.3872 42.8897C44.0819 42.2553 48.4752 40.8774 50.5657 40.3268C53.143 39.6423 53.525 39.5197 55.4875 38.7709C56.4051 38.4195 57.2237 38.1242 57.3093 38.122C57.4428 38.1045 57.5526 38.2169 58.0687 38.9053C59.3322 40.596 60.3824 42.3508 61.0327 43.8344C61.2867 44.4055 61.4845 44.8935 61.4715 44.9156C61.465 44.9345 61.1731 44.9344 60.8243 44.9145C59.6386 44.8278 59.2961 44.8207 58.3121 44.857C57.0806 44.9031 55.2474 45.1392 53.7974 45.4336C52.5542 45.6828 48.9686 46.597 47.7621 46.9704C46.7816 47.2734 45.2891 47.9832 44.6592 48.4394C44.1187 48.8363 44.1978 48.8531 45.1342 48.5242C47.5036 47.7039 48.8685 47.3482 50.5269 47.1419C56.2455 46.43 57.716 46.2913 59.5084 46.312C60.7868 46.3298 61.6902 46.4037 62.6718 46.5896C63.0359 46.6573 63.3431 46.7053 63.3623 46.696C63.4388 46.6587 63.2288 45.8373 62.9455 45.0436C62.437 43.6569 60.9649 41.002 59.4816 38.8105C58.8602 37.8891 58.3203 37.0544 58.2896 36.9588C58.2341 36.8121 58.3087 36.6574 58.747 36.0339C59.9168 34.3522 60.5147 33.0513 60.6774 31.7961C61.1334 28.3539 61.125 26.7793 60.6454 24.7707C60.3995 23.7457 59.5429 21.9835 58.9415 21.2655C58.459 20.6949 57.7138 20.0705 57.08 19.7077C56.5881 19.4259 55.5576 19.0744 54.978 18.9851C54.0023 18.8438 52.5927 18.9291 51.3777 19.204C50.589 19.3822 48.9664 20.0842 48.3398 20.5309C47.8155 20.8963 47.8408 20.8997 47.4311 20.349C46.4087 18.9596 44.3187 17.7102 42.4001 17.3326C41.0735 17.0697 39.8129 17.1695 38.2434 17.6562C37.3999 17.9163 34.1824 19.4093 33.3201 19.9391ZM38.769 19.224C41.2484 18.5002 43.3946 18.9566 45.3754 20.6301C45.6552 20.8651 46.0852 21.2954 46.3297 21.5712L46.7747 22.0811L46.5092 22.5732C46.0982 23.3176 45.8764 24.1754 45.8706 25.007C45.8701 25.9308 45.9789 26.4304 46.3545 27.2029L46.6587 27.8286L46.6773 27.2828C46.691 26.5973 46.8953 25.6061 47.1333 25.0088C47.6322 23.7638 48.4613 22.5004 49.1784 21.8992C50.6642 20.6402 52.7303 19.991 54.4887 20.2175C55.2301 20.315 56.2982 20.7114 56.8999 21.1056C58.7646 22.3619 59.7656 24.859 59.7389 28.2108C59.7243 29.5598 59.5747 30.485 59.1577 31.7849C58.5535 33.6731 57.3678 35.6466 56.4503 36.29L56.1913 36.4712L56.3072 36.0281C56.5063 35.2209 56.3902 34.2196 55.9898 33.396L55.8222 33.0512L55.7705 33.4316C55.7117 33.8785 54.9305 35.7107 54.4879 36.4389C54.3199 36.7258 54.0235 37.1382 53.8402 37.3615C53.5413 37.72 53.4549 37.7856 53.0982 37.9117C52.7415 38.0377 48.923 39.0731 48.6879 39.1085C48.6339 39.111 48.743 38.7028 48.9363 38.1431C49.3324 37.0112 49.4156 36.3551 49.2778 35.3091C49.1195 34.1074 48.461 32.8015 47.6623 32.132L47.4077 31.9164L47.5639 32.4324C47.8946 33.5346 48.0919 34.6542 48.0901 35.4129C48.086 36.0858 48.0394 36.2821 47.6857 37.3066C47.0407 39.1594 46.4874 39.8545 45.5466 40.012C45.0825 40.0955 44.5063 40.273 43.4422 40.6798C41.4639 41.4284 39.9055 42.0676 38.5759 42.6745C36.9498 43.4176 36.7556 43.4725 35.3901 43.5838C32.9895 43.772 30.6639 43.4818 28.5082 42.73C27.2154 42.2771 27.2154 42.2771 27.6111 42.6531C29.5172 44.4812 31.3843 45.2233 33.961 45.1863L34.7765 45.1766L34.1322 45.7819C33.3564 46.5221 32.8201 47.1223 32.6547 47.4473L32.5315 47.6967L31.9181 47.7976C30.7864 48.0004 28.5033 47.8789 26.743 47.5349C25.7394 47.336 24.1528 46.7654 23.3359 46.3179C22.5128 45.8577 21.6664 45.2036 21.0705 44.5618C20.7005 44.1576 20.5414 43.9113 20.1434 43.1576C19.7113 42.3336 19.6527 42.1805 19.5169 41.5282C19.2486 40.23 19.3819 38.4602 19.8252 37.3765C20.3728 36.0209 21.6637 34.5882 22.468 34.4419C22.9449 34.3522 22.9544 34.3555 22.9574 34.9618C22.9636 35.2667 23.0347 36.0293 23.1135 36.662C23.2656 37.8509 23.2929 38.556 23.1924 39.0469C23.1283 39.4017 23.1666 39.383 23.3962 38.9794C23.6744 38.481 23.9549 37.4843 24.1946 36.1443C24.6678 33.4673 25.1206 31.7869 25.7351 30.4067C27.2404 27.0465 30.3921 23.7147 34.4167 21.2214C35.2566 20.7105 37.9861 19.4467 38.769 19.224Z" fill="white"/>
<path d="M34.3112 52.1042C34.2152 53.0586 34.4208 54.2927 34.8438 55.3737C35.0631 55.9222 35.8132 57.2704 36.3503 58.067C36.4877 58.2686 36.7543 58.5574 36.9398 58.7119C37.3234 59.0306 38.1859 59.377 38.772 59.4472C39.992 59.5882 42.3006 59.1132 44.5275 58.2595C46.78 57.3934 47.8512 56.9201 48.8185 56.363C50.0605 55.6408 53.7233 53.1656 53.4657 53.2198C53.3576 53.2408 52.6376 53.5118 51.8664 53.8236C51.0922 54.1289 49.8336 54.6224 49.0595 54.9119C48.2918 55.1982 46.9248 55.7444 46.0165 56.1149C43.5084 57.1526 42.171 57.5975 41.0269 57.7748C39.6921 57.9817 39.089 57.7144 39.104 56.9178C39.1203 56.2863 39.4985 55.6367 40.2192 55.0101C40.5907 54.6874 40.846 54.5475 42.2399 53.862C44.026 52.9937 45.0232 52.6116 47.3276 51.9334C49.7625 51.2154 52.0045 50.7333 55.0427 50.2667C58.4495 49.7472 59.3786 49.5007 61.4289 48.5593C62.21 48.2032 62.8288 47.9024 62.8003 47.8926C62.7719 47.8827 62.3266 47.9887 61.808 48.1224C59.2975 48.7824 58.2902 48.9327 56.2943 48.9478C53.4196 48.9719 51.2717 49.2583 48.1477 50.035C45.9304 50.584 44.383 51.0837 42.6398 51.7969C40.2146 52.7943 38.1302 54.2496 37.3906 55.4537C37.242 55.6996 37.0874 55.9169 37.0619 55.9293C36.9917 55.9634 36.4517 55.1445 35.6137 53.7128C35.2306 53.0544 34.7881 52.3065 34.6353 52.0572L34.3579 51.6L34.3112 52.1042Z" fill="white"/>
</svg>
