<svg width="572" height="254" viewBox="0 0 572 254" fill="none" xmlns="http://www.w3.org/2000/svg">
<path d="M36.8 76.2C32.2667 76.2 28.6 78.2 25.8 82.2C23 86.2 21.6 91.5333 21.6 98.2C21.6 104.6 22.9333 109.8 25.6 113.8C28.3333 117.8 32.1 119.8 36.9 119.8C39.5667 119.8 42.0333 119.467 44.3 118.8C46.5667 118.133 48.6333 117.3 50.5 116.3L56.7 128.5C54.1 130.033 50.9667 131.2 47.3 132C43.6333 132.867 40.1667 133.3 36.9 133.3C26.0333 133.3 17.9333 130 12.6 123.4C7.26667 116.8 4.6 108.433 4.6 98.3C4.6 87.8333 7.43333 79.3 13.1 72.7C18.8333 66.0333 26.7333 62.7 36.8 62.7C39.6667 62.7 42.9 63.1333 46.5 64C50.1667 64.8667 53.3667 66.1667 56.1 67.9L51.2 79.1C47.8 78.0333 45.1667 77.3 43.3 76.9C41.4333 76.4333 39.2667 76.2 36.8 76.2ZM73.9563 63.5V91.7H99.4563V64H115.856V132H99.4563V104.7H73.9563V132H57.5563V63.5H73.9563ZM147.698 84.4L140.398 104.7H155.298L147.698 84.4ZM155.898 64L181.598 130.2L165.398 132L160.098 117.7H135.798L130.598 132H114.298L140.098 64H155.898ZM209.139 112.2L196.339 96.2V132H179.939V64H191.039L212.339 91.8C215.606 87.2 218.839 82.5667 222.039 77.9C225.306 73.2333 228.572 68.6 231.839 64H242.539V132H226.039V97C224.372 99.4 222.639 101.8 220.839 104.2C219.106 106.533 217.372 108.9 215.639 111.3C214.572 111.367 213.472 111.5 212.339 111.7C211.272 111.9 210.206 112.067 209.139 112.2ZM274.378 84.4L267.078 104.7H281.978L274.378 84.4ZM282.578 64L308.278 130.2L292.078 132L286.778 117.7H262.478L257.278 132H240.978L266.778 64H282.578ZM353.821 76.4C362.514 76.4 369.021 79.1467 373.341 84.64C377.714 90.08 379.901 96.6933 379.901 104.48C379.901 112.907 377.607 119.787 373.021 125.12C368.434 130.453 362.034 133.12 353.821 133.12C345.181 133.12 338.674 130.4 334.301 124.96C329.981 119.467 327.821 112.827 327.821 105.04C327.821 96.6667 330.141 89.8133 334.781 84.48C339.421 79.1467 345.767 76.4533 353.821 76.4ZM353.741 122.16C357.687 122.16 360.754 120.693 362.941 117.76C365.181 114.827 366.301 110.4 366.301 104.48C366.301 99.52 365.314 95.44 363.341 92.24C361.421 89.04 358.301 87.44 353.981 87.44C350.141 87.44 347.074 89.04 344.781 92.24C342.487 95.44 341.341 99.68 341.341 104.96C341.341 109.92 342.301 114.027 344.221 117.28C346.194 120.533 349.367 122.16 353.741 122.16Z" fill="#F58100"/>
<path d="M385.9 211.4C386.433 210.8 387.133 210.5 388 210.5C388.8 210.5 389.5 210.8 390.1 211.4C390.7 211.933 391 212.633 391 213.5C391 214.3 390.667 215.033 390 215.7C386.8 218.967 382.633 221.533 377.5 223.4C372.433 225.2 367.3 226.1 362.1 226.1C354.7 226.1 348.033 224.4 342.1 221C336.167 217.533 331.5 212.733 328.1 206.6C324.7 200.467 323 193.5 323 185.7C323 177.9 324.7 170.867 328.1 164.6C331.5 158.267 336.167 153.333 342.1 149.8C348.033 146.2 354.7 144.4 362.1 144.4C373.633 144.4 382.633 148.067 389.1 155.4C389.767 156.133 390.1 156.9 390.1 157.7C390.1 158.5 389.8 159.2 389.2 159.8C388.6 160.4 387.867 160.7 387 160.7C386.133 160.7 385.433 160.4 384.9 159.8C382.1 156.533 378.8 154.2 375 152.8C371.2 151.333 366.9 150.6 362.1 150.6C355.9 150.6 350.267 152.1 345.2 155.1C340.2 158.1 336.267 162.267 333.4 167.6C330.6 172.933 329.2 178.967 329.2 185.7C329.2 192.367 330.6 198.3 333.4 203.5C336.267 208.7 340.2 212.733 345.2 215.6C350.2 218.467 355.833 219.9 362.1 219.9C367.367 219.9 372.1 219.2 376.3 217.8C380.5 216.4 383.7 214.267 385.9 211.4ZM447.709 144.7C448.575 144.7 449.309 145 449.909 145.6C450.509 146.2 450.809 146.9 450.809 147.7V221.8C450.809 222.6 450.509 223.3 449.909 223.9C449.309 224.5 448.575 224.8 447.709 224.8C446.842 224.8 446.109 224.5 445.509 223.9C444.909 223.3 444.609 222.6 444.609 221.8V184.5H400.009V221.8C400.009 222.6 399.709 223.3 399.109 223.9C398.509 224.5 397.775 224.8 396.909 224.8C396.042 224.8 395.309 224.5 394.709 223.9C394.109 223.3 393.809 222.6 393.809 221.8V147.7C393.809 146.9 394.109 146.2 394.709 145.6C395.309 145 396.042 144.7 396.909 144.7C397.775 144.7 398.509 145 399.109 145.6C399.709 146.2 400.009 146.9 400.009 147.7V178.5H444.609V147.7C444.609 146.9 444.909 146.2 445.509 145.6C446.109 145 446.842 144.7 447.709 144.7ZM519.855 210.5C520.655 210.5 521.355 210.8 521.955 211.4C522.555 211.933 522.855 212.633 522.855 213.5C522.855 214.3 522.522 215.033 521.855 215.7C518.655 218.967 514.489 221.533 509.355 223.4C504.289 225.2 499.155 226.1 493.955 226.1C486.555 226.1 479.889 224.4 473.955 221C468.022 217.533 463.355 212.733 459.955 206.6C456.555 200.467 454.855 193.5 454.855 185.7C454.855 177.9 456.555 170.867 459.955 164.6C463.355 158.267 468.022 153.333 473.955 149.8C479.889 146.2 486.555 144.4 493.955 144.4C505.489 144.4 514.489 148.067 520.955 155.4C521.622 156.133 521.955 156.9 521.955 157.7C521.955 158.5 521.655 159.2 521.055 159.8C520.455 160.4 519.722 160.7 518.855 160.7C517.989 160.7 517.289 160.4 516.755 159.8C513.955 156.533 510.655 154.2 506.855 152.8C503.055 151.333 498.755 150.6 493.955 150.6C488.289 150.6 483.089 151.867 478.355 154.4C473.689 156.867 469.855 160.367 466.855 164.9C463.922 169.367 462.089 174.533 461.355 180.4H499.755C500.622 180.4 501.322 180.7 501.855 181.3C502.455 181.833 502.755 182.533 502.755 183.4C502.755 184.267 502.455 185 501.855 185.6C501.322 186.133 500.622 186.4 499.755 186.4H461.055C461.122 192.933 462.589 198.767 465.455 203.9C468.322 208.967 472.222 212.9 477.155 215.7C482.155 218.5 487.755 219.9 493.955 219.9C499.222 219.9 503.955 219.2 508.155 217.8C512.355 216.4 515.555 214.267 517.755 211.4C518.289 210.8 518.989 210.5 519.855 210.5ZM562.964 144.9C563.764 144.9 564.464 145.2 565.064 145.8C565.664 146.333 565.964 147.033 565.964 147.9C565.964 148.7 565.664 149.4 565.064 150C564.464 150.6 563.764 150.9 562.964 150.9H531.664V176.8H559.364C560.164 176.8 560.864 177.1 561.464 177.7C562.064 178.233 562.364 178.933 562.364 179.8C562.364 180.667 562.064 181.4 561.464 182C560.864 182.533 560.164 182.8 559.364 182.8H531.664V222.3C531.664 223.167 531.364 223.9 530.764 224.5C530.231 225.033 529.531 225.3 528.664 225.3C527.797 225.3 527.064 225.033 526.464 224.5C525.931 223.9 525.664 223.167 525.664 222.3V148.3C525.664 147.233 525.964 146.4 526.564 145.8C527.164 145.2 527.997 144.9 529.064 144.9H562.964Z" fill="#F58100"/>
</svg>
