<svg width="140" height="170" xmlns="http://www.w3.org/2000/svg" fill="none">

 <g>
  <title>Layer 1</title>
  <path id="svg_1" fill="#EA7B01" d="m39.4102,18.3718c-10.3911,6.3938 -17.6018,15.8814 -18.913,24.8794c-0.1198,0.7732 -0.209,1.4294 -0.2093,1.4587c-0.0061,0.0175 -0.3219,-0.0624 -0.7193,-0.1902c-0.3799,-0.1217 -1.0884,-0.2296 -1.5518,-0.2232c-0.8092,-0.0152 -0.9328,0.0303 -2.3832,0.7354c-1.3738,0.6825 -1.5982,0.8207 -2.1858,1.4712c-0.9258,1.0045 -1.6377,2.2989 -2.1835,3.965c-1.84307,5.565 -0.2884,12.0318 3.8839,16.1462c2.1297,2.1018 4.0817,3.2685 8.1353,4.7997c4.147,1.5733 6.2884,2.0498 9.8001,2.1665c2.3157,0.0853 6.7532,-0.2626 7.39,-0.5722c0.2712,-0.1318 0.6823,-0.7256 1.239,-1.7696c2.3705,-4.4499 6.6027,-7.4994 14.4581,-10.4428c3.1327,-1.1727 11.2536,-3.7198 15.1178,-4.7374c4.7641,-1.2655 5.4704,-1.4921 9.098,-2.8762c1.6961,-0.6495 3.2092,-1.1954 3.3676,-1.1994c0.2467,-0.0324 0.4497,0.1753 1.4037,1.4479c2.3356,3.1251 4.2769,6.3689 5.4789,9.1113c0.4695,1.0558 0.8351,1.9578 0.8112,1.9986c-0.0121,0.0351 -0.5517,0.0347 -1.1964,-0.002c-2.1917,-0.1602 -2.8249,-0.1734 -4.6437,-0.1063c-2.2765,0.0853 -5.6652,0.5216 -8.3454,1.0658c-2.2981,0.4606 -8.926,2.1506 -11.1562,2.8408c-1.8124,0.5601 -4.5713,1.8721 -5.7358,2.7154c-0.9991,0.7337 -0.8528,0.7648 0.878,0.1568c4.3798,-1.5163 6.9029,-2.1738 9.9685,-2.5552c10.5708,-1.316 13.2889,-1.5722 16.6021,-1.5341c2.3632,0.033 4.0332,0.1696 5.8475,0.5132c0.6731,0.1251 1.2411,0.2138 1.2764,0.1966c0.1415,-0.0688 -0.2467,-1.5872 -0.7704,-3.0543c-0.94,-2.5633 -3.661,-7.4709 -6.403,-11.5219c-1.1487,-1.7032 -2.1466,-3.2462 -2.2034,-3.4229c-0.1026,-0.2711 0.0354,-0.557 0.8455,-1.7096c2.1625,-3.1085 3.2676,-5.5134 3.5683,-7.8336c0.8429,-6.3629 0.8274,-9.2735 -0.0591,-12.9864c-0.4545,-1.8947 -2.038,-5.152 -3.1497,-6.4792c-0.8918,-1.0547 -2.2693,-2.2089 -3.4408,-2.8796c-0.9093,-0.521 -2.8142,-1.1708 -3.8857,-1.3357c-1.8035,-0.2613 -4.4092,-0.1035 -6.655,0.4046c-1.458,0.3295 -4.4572,1.627 -5.6156,2.4528c-0.9692,0.6753 -0.9223,0.6818 -1.6796,-0.3362c-1.89,-2.5684 -5.7534,-4.8779 -9.2999,-5.5759c-2.4521,-0.4859 -4.7824,-0.3015 -7.6835,0.5981c-1.5593,0.4808 -7.5067,3.2407 -9.1008,4.2199zm10.0724,-1.3217c4.5831,-1.338 8.5503,-0.4943 12.2117,2.5992c0.5172,0.4343 1.3121,1.2297 1.7641,1.7395l0.8226,0.9425l-0.4908,0.9098c-0.7597,1.376 -1.1697,2.9615 -1.1805,4.4988c-0.0009,1.7075 0.2003,2.6311 0.8945,4.0591l0.5623,1.1566l0.0343,-1.0089c0.0254,-1.2672 0.403,-3.0995 0.8431,-4.2034c0.9221,-2.3014 2.4546,-4.6368 3.7803,-5.7481c2.7465,-2.3273 6.5657,-3.5274 9.8161,-3.1086c1.3704,0.1801 3.3448,0.9128 4.4571,1.6415c3.4468,2.3223 5.2971,6.9381 5.2478,13.1341c-0.027,2.4935 -0.3035,4.2038 -1.0743,6.6066c-1.1169,3.4903 -3.3087,7.1384 -5.0047,8.3276l-0.4787,0.3349l0.2141,-0.8191c0.3681,-1.4921 0.1535,-3.3429 -0.5866,-4.8653l-0.3098,-0.6373l-0.0956,0.703c-0.1086,0.8261 -1.5528,4.2129 -2.3708,5.559c-0.3107,0.5304 -0.8585,1.2928 -1.1973,1.7055c-0.5525,0.6626 -0.7122,0.7839 -1.3716,1.0169c-0.6594,0.233 -7.7178,2.1469 -8.1525,2.2123c-0.0997,0.0047 0.102,-0.7499 0.4592,-1.7844c0.7322,-2.0923 0.8861,-3.3052 0.6313,-5.2386c-0.2927,-2.2215 -1.5099,-4.6354 -2.9862,-5.873l-0.4707,-0.3985l0.2888,0.9539c0.6114,2.0373 0.9761,4.107 0.9726,5.5094c-0.0075,1.2439 -0.0936,1.6067 -0.7474,3.5004c-1.1924,3.4249 -2.215,4.7099 -3.9542,5.0009c-0.8579,0.1544 -1.923,0.4825 -3.8899,1.2345c-3.657,1.3838 -6.5376,2.5653 -8.9954,3.6871c-3.0059,1.3737 -3.3647,1.4752 -5.8888,1.6809c-4.4375,0.3479 -8.7365,-0.1886 -12.7212,-1.5782c-2.3897,-0.8372 -2.3897,-0.8372 -1.6582,-0.1423c3.5234,3.3794 6.9746,4.7511 11.7376,4.6827l1.5074,-0.0178l-1.1909,1.1188c-1.4341,1.3683 -2.4255,2.4776 -2.7311,3.0785l-0.2278,0.461l-1.1339,0.1864c-2.0919,0.375 -6.3122,0.1504 -9.5661,-0.4856c-1.8552,-0.3675 -4.7879,-1.4223 -6.2979,-2.2494c-1.5215,-0.8508 -3.0861,-2.06 -4.1876,-3.2462c-0.6839,-0.7473 -0.9781,-1.2025 -1.7138,-2.5958c-0.7987,-1.5231 -0.9071,-1.806 -1.158,-3.0118c-0.496,-2.3998 -0.2495,-5.6712 0.5698,-7.6745c1.0123,-2.5057 3.3986,-5.154 4.8853,-5.4244c0.8815,-0.1659 0.899,-0.1598 0.9045,0.961c0.0115,0.5635 0.1429,1.9733 0.2886,3.1426c0.2812,2.1979 0.3317,3.5011 0.1459,4.4085c-0.1185,0.6559 -0.0478,0.6215 0.3767,-0.1247c0.5143,-0.9213 1.0327,-2.7637 1.4759,-5.2407c0.8746,-4.9483 1.7116,-8.0545 2.8476,-10.6057c2.7825,-6.2115 8.6083,-12.3703 16.0477,-16.979c1.5527,-0.9445 6.5982,-3.2805 8.0454,-3.6922z"/>
  <path id="svg_2" fill="#EA7B01" d="m41.2424,77.8288c-0.1774,1.7642 0.2026,4.0453 0.9845,6.0435c0.4054,1.014 1.7919,3.5062 2.7847,4.9787c0.2541,0.3726 0.7468,0.9064 1.0897,1.192c0.7092,0.5891 2.3033,1.2294 3.3869,1.3592c2.2551,0.2607 6.5225,-0.6173 10.639,-2.1954c4.1637,-1.6009 6.1437,-2.4759 7.9319,-3.5057c2.2958,-1.335 9.0663,-5.9103 8.5902,-5.8102c-0.1999,0.0388 -1.5307,0.5399 -2.9562,1.1161c-1.4313,0.5645 -3.7577,1.4766 -5.1886,2.0117c-1.4192,0.5294 -3.9461,1.5389 -5.6249,2.2238c-4.6363,1.9182 -7.1084,2.7406 -9.2233,3.0684c-2.4673,0.3823 -3.5822,-0.1117 -3.5545,-1.5842c0.0302,-1.1673 0.7293,-2.3681 2.0614,-3.5263c0.6868,-0.5965 1.1588,-0.8552 3.7354,-2.1223c3.3016,-1.605 5.1449,-2.3114 9.4046,-3.5651c4.5008,-1.3272 8.6451,-2.2184 14.2612,-3.0809c6.2974,-0.9603 8.0149,-1.4158 11.8047,-3.156c1.444,-0.6582 2.5878,-1.2142 2.5352,-1.2325c-0.0526,-0.0182 -0.8758,0.1777 -1.8344,0.4249c-4.6405,1.2199 -6.5026,1.4978 -10.1919,1.5257c-5.314,0.0445 -9.2843,0.5739 -15.059,2.0096c-4.0987,1.015 -6.959,1.9385 -10.1813,3.2569c-4.483,1.8438 -8.3359,4.5339 -9.703,6.7597c-0.2747,0.4545 -0.5605,0.8561 -0.6077,0.879c-0.1297,0.0631 -1.1279,-1.4506 -2.677,-4.0972c-0.7082,-1.2169 -1.526,-2.5994 -1.8084,-3.0604l-0.5129,-0.845l-0.0863,0.932z"/>
  <g>
   <path fill="#EA7B01" d="m84.30871,158.32268c-8.0422,0 -14.5579,-2.9041 -19.54701,-8.7123c-4.98914,-5.8083 -7.48371,-13.9622 -7.48371,-24.4617c0,-8.4146 1.60099,-16.1961 4.80298,-23.3448c3.27645,-7.223 7.96774,-13.0313 14.07384,-17.42472c6.1806,-4.46789 12.808,-6.70184 19.8821,-6.70184c7.1486,0 13.0314,1.41484 17.6482,4.2445c4.6913,2.82967 7.0369,6.55286 7.0369,11.16976c0,4.5423 -1.2659,8.1539 -3.7977,10.8346c-2.9786,0 -6.404,-0.5957 -10.2761,-1.7872c-3.8722,-1.1914 -6.7763,-2.6435 -8.7124,-4.3562l2.1222,-10.83459c-1.5637,-0.74464 -3.0903,-1.11696 -4.5796,-1.11696c-4.3189,0 -8.1166,3.76045 -11.3931,11.28145c-3.2764,7.4464 -4.9147,16.1961 -4.9147,26.2488c0,15.0419 4.2445,22.5628 12.7335,22.5628c5.0636,0 10.723,-2.7551 16.978,-8.2655l5.2498,5.2497c-0.5958,0.9681 -2.1223,2.5691 -4.5796,4.803c-2.4574,2.1595 -4.803,3.9094 -7.0369,5.2498c-2.1595,1.3404 -4.9147,2.569 -8.2656,3.686c-3.2765,1.117 -6.5902,1.6754 -9.9411,1.6754z"/>
  </g>
 </g>
</svg>