<svg width="767" height="767" viewBox="0 0 767 767" fill="none" xmlns="http://www.w3.org/2000/svg">
<circle cx="383.5" cy="383.5" r="383.5" fill="#F58100"/>
<path d="M470 615C440 615 413.167 608.667 389.5 596C365.833 583 347.167 565.333 333.5 543C319.833 520.667 313 495.333 313 467C313 438.667 319.833 413.5 333.5 391.5C347.167 369.167 365.833 351.667 389.5 339C413.167 326 440 319.5 470 319.5C496 319.5 518.667 323.5 538 331.5C557.667 339.167 574.333 351.333 588 368L547 407C537 395.333 525.667 386.833 513 381.5C500.333 375.833 486.667 373 472 373C453.667 373 437.167 377 422.5 385C408.167 393 396.833 404.167 388.5 418.5C380.5 432.5 376.5 448.667 376.5 467C376.5 485.333 380.5 501.667 388.5 516C396.833 530.333 408.167 541.5 422.5 549.5C437.167 557.5 453.667 561.5 472 561.5C486.667 561.5 500.333 558.667 513 553C525.667 547.333 537 538.667 547 527L588 566.5C574.333 582.833 557.667 595 538 603C518.333 611 495.667 615 470 615Z" fill="white"/>
<path d="M219.828 101.244C179.532 126.039 151.57 162.83 146.485 197.724C146.021 200.722 145.675 203.267 145.674 203.38C145.65 203.448 144.426 203.138 142.884 202.643C141.411 202.171 138.664 201.752 136.867 201.777C133.729 201.718 133.249 201.895 127.625 204.629C122.297 207.276 121.427 207.812 119.149 210.334C115.559 214.229 112.798 219.249 110.681 225.71C103.534 247.29 109.563 272.368 125.743 288.323C134.001 296.473 141.571 300.998 157.291 306.935C173.372 313.037 181.676 314.884 195.294 315.337C204.274 315.668 221.482 314.319 223.951 313.118C225.003 312.607 226.597 310.304 228.756 306.256C237.949 289 254.361 277.174 284.823 265.76C296.971 261.212 328.463 251.335 343.448 247.389C361.923 242.481 364.661 241.603 378.729 236.235C385.306 233.717 391.174 231.6 391.788 231.584C392.745 231.458 393.532 232.264 397.231 237.199C406.289 249.318 413.817 261.897 418.478 272.532C420.299 276.626 421.716 280.123 421.624 280.282C421.577 280.418 419.485 280.416 416.984 280.274C408.485 279.653 406.03 279.602 398.976 279.862C390.149 280.193 377.008 281.885 366.614 283.995C357.702 285.781 332 292.335 323.352 295.011C316.323 297.183 305.625 302.271 301.109 305.541C297.235 308.386 297.802 308.507 304.514 306.149C321.498 300.269 331.282 297.719 343.17 296.24C384.163 291.137 394.703 290.143 407.551 290.291C416.715 290.419 423.191 290.949 430.227 292.282C432.838 292.767 435.04 293.111 435.177 293.044C435.726 292.777 434.22 286.889 432.189 281.2C428.544 271.259 417.992 252.228 407.359 236.519C402.905 229.914 399.035 223.931 398.815 223.245C398.417 222.194 398.952 221.085 402.093 216.616C410.479 204.561 414.765 195.236 415.931 186.238C419.2 161.564 419.14 150.277 415.702 135.879C413.939 128.531 407.799 115.9 403.488 110.753C400.03 106.663 394.688 102.187 390.145 99.5861C386.619 97.5658 379.232 95.046 375.077 94.4066C368.083 93.3932 357.978 94.0051 349.269 95.9756C343.615 97.253 331.985 102.285 327.492 105.487C323.734 108.106 323.916 108.131 320.979 104.183C313.65 94.2232 298.668 85.2673 284.915 82.5605C275.406 80.6763 266.37 81.3915 255.12 84.88C249.073 86.7446 226.009 97.4472 219.828 101.244ZM258.887 96.1189C276.66 90.9304 292.044 94.2021 306.243 106.198C308.249 107.882 311.331 110.967 313.084 112.944L316.274 116.599L314.371 120.127C311.425 125.463 309.834 131.611 309.793 137.573C309.789 144.194 310.569 147.776 313.261 153.313L315.442 157.798L315.575 153.886C315.674 148.972 317.138 141.867 318.844 137.586C322.42 128.661 328.363 119.605 333.504 115.295C344.154 106.27 358.965 101.617 371.57 103.241C376.884 103.939 384.54 106.78 388.854 109.606C402.22 118.612 409.395 136.511 409.204 160.538C409.099 170.208 408.027 176.84 405.038 186.158C400.707 199.693 392.208 213.84 385.63 218.452L383.774 219.75L384.605 216.574C386.032 210.788 385.2 203.611 382.329 197.707L381.128 195.235L380.757 197.962C380.336 201.165 374.736 214.299 371.564 219.519C370.359 221.576 368.235 224.532 366.921 226.132C364.778 228.702 364.159 229.173 361.602 230.076C359.045 230.98 331.673 238.401 329.988 238.655C329.601 238.673 330.383 235.747 331.768 231.735C334.608 223.622 335.204 218.918 334.217 211.421C333.082 202.806 328.361 193.445 322.636 188.646L320.811 187.1L321.931 190.8C324.302 198.7 325.716 206.726 325.703 212.164C325.673 216.988 325.34 218.395 322.804 225.739C318.18 239.02 314.215 244.003 307.47 245.132C304.143 245.73 300.013 247.003 292.386 249.919C278.204 255.285 267.033 259.867 257.503 264.217C245.846 269.544 244.455 269.938 234.667 270.735C217.458 272.084 200.788 270.004 185.335 264.615C176.068 261.368 176.068 261.368 178.905 264.063C192.568 277.168 205.952 282.488 224.422 282.222L230.268 282.153L225.649 286.492C220.088 291.798 216.244 296.1 215.059 298.43L214.175 300.217L209.778 300.94C201.666 302.394 185.3 301.523 172.682 299.057C165.488 297.632 154.115 293.542 148.259 290.334C142.359 287.035 136.292 282.346 132.02 277.746C129.368 274.848 128.227 273.083 125.374 267.68C122.277 261.773 121.857 260.676 120.884 256C118.96 246.694 119.916 234.008 123.093 226.24C127.019 216.523 136.273 206.253 142.038 205.204C145.456 204.561 145.524 204.585 145.546 208.931C145.59 211.116 146.1 216.583 146.665 221.118C147.755 229.641 147.951 234.695 147.23 238.213C146.771 240.757 147.045 240.623 148.691 237.73C150.686 234.157 152.696 227.013 154.415 217.407C157.806 198.218 161.052 186.172 165.457 176.279C176.248 152.192 198.839 128.309 227.688 110.437C233.709 106.774 253.275 97.7154 258.887 96.1189Z" fill="white"/>
<path d="M226.933 331.811C226.245 338.653 227.719 347.499 230.751 355.247C232.323 359.179 237.7 368.844 241.55 374.554C242.535 375.999 244.446 378.069 245.776 379.177C248.526 381.461 254.708 383.944 258.91 384.448C267.655 385.458 284.203 382.054 300.166 375.934C316.313 369.726 323.991 366.333 330.925 362.339C339.828 357.162 366.083 339.42 364.237 339.808C363.462 339.959 358.301 341.902 352.773 344.136C347.223 346.325 338.201 349.862 332.652 351.937C327.149 353.99 317.35 357.905 310.84 360.561C292.861 368 283.274 371.189 275.073 372.46C265.505 373.942 261.182 372.027 261.289 366.316C261.406 361.79 264.117 357.133 269.283 352.642C271.946 350.329 273.776 349.326 283.768 344.412C296.572 338.188 303.72 335.448 320.238 330.587C337.692 325.44 353.763 321.984 375.541 318.64C399.962 314.916 406.622 313.149 421.319 306.401C426.918 303.848 431.354 301.692 431.15 301.622C430.946 301.551 427.754 302.311 424.036 303.269C406.041 308 398.82 309.077 384.513 309.186C363.906 309.358 348.51 311.411 326.116 316.979C310.222 320.914 299.13 324.496 286.635 329.608C269.25 336.758 254.309 347.19 249.007 355.822C247.942 357.584 246.834 359.142 246.651 359.231C246.148 359.475 242.277 353.605 236.27 343.342C233.524 338.623 230.352 333.262 229.257 331.474L227.268 328.197L226.933 331.811Z" fill="white"/>
</svg>
