<svg width="13" height="12" viewBox="0 0 13 12" fill="none" xmlns="http://www.w3.org/2000/svg">
<path id="Star 1" opacity="0.4" d="M6.11937 0.583465C6.26133 0.107249 6.93573 0.107248 7.07769 0.583463L8.04741 3.83645C8.11058 4.04837 8.30545 4.19362 8.52657 4.19362H11.7503C12.2242 4.19362 12.4322 4.7914 12.0607 5.08559L9.38064 7.20798C9.2203 7.33496 9.15346 7.54679 9.21189 7.74279L10.2178 11.1172C10.3574 11.5855 9.81136 11.9554 9.42823 11.652L6.90894 9.65697C6.72706 9.51294 6.47 9.51294 6.28812 9.65697L3.76883 11.652C3.3857 11.9554 2.83964 11.5856 2.97926 11.1172L3.98517 7.74279C4.0436 7.54679 3.97676 7.33496 3.81642 7.20798L1.13632 5.08559C0.764824 4.7914 0.972854 4.19362 1.44673 4.19362H4.67049C4.89161 4.19362 5.08648 4.04837 5.14965 3.83645L6.11937 0.583465Z" fill="#FFB300"/>
</svg>
