<svg xmlns="http://www.w3.org/2000/svg" width="24" height="26" viewBox="0 0 24 26" fill="none">
<path fill-rule="evenodd" clip-rule="evenodd" d="M11.6667 0.862305C5.22667 0.862305 0 6.27236 0 12.9383C0 19.6043 5.22667 25.0144 11.6667 25.0144C18.1067 25.0144 23.3333 19.6043 23.3333 12.9383C23.3333 6.27236 18.1067 0.862305 11.6667 0.862305ZM5.915 20.5221C6.41667 19.4352 9.47333 18.3725 11.6667 18.3725C13.86 18.3725 16.9283 19.4352 17.4183 20.5221C15.8317 21.8263 13.8367 22.5991 11.6667 22.5991C9.49667 22.5991 7.50167 21.8263 5.915 20.5221ZM11.6667 15.9573C13.37 15.9573 17.4183 16.6698 19.0867 18.771C20.2767 17.1529 21 15.1362 21 12.9383C21 7.6128 16.8117 3.27751 11.6667 3.27751C6.52167 3.27751 2.33333 7.6128 2.33333 12.9383C2.33333 15.1362 3.05667 17.1529 4.24667 18.771C5.915 16.6698 9.96333 15.9573 11.6667 15.9573ZM11.6667 5.69271C9.40333 5.69271 7.58333 7.57657 7.58333 9.91932C7.58333 12.2621 9.40333 14.1459 11.6667 14.1459C13.93 14.1459 15.75 12.2621 15.75 9.91932C15.75 7.57657 13.93 5.69271 11.6667 5.69271ZM9.91667 9.91932C9.91667 10.9216 10.6983 11.7307 11.6667 11.7307C12.635 11.7307 13.4167 10.9216 13.4167 9.91932C13.4167 8.91701 12.635 8.10792 11.6667 8.10792C10.6983 8.10792 9.91667 8.91701 9.91667 9.91932Z" fill="#868686"/>
</svg>