<svg width="38" height="38" viewBox="0 0 38 38" fill="none" xmlns="http://www.w3.org/2000/svg">
<path d="M12.8912 6.01283C9.52201 8.16395 7.29379 11.5343 7.04666 14.8509C7.02302 15.1358 7.00717 15.3778 7.0077 15.3887C7.00604 15.395 6.89767 15.3585 6.76071 15.3023C6.62981 15.2488 6.38827 15.1933 6.23196 15.1856C5.95844 15.1624 5.91769 15.1766 5.44335 15.4072C4.99434 15.6311 4.9216 15.6776 4.73734 15.9066C4.44662 16.2599 4.23441 16.7257 4.08634 17.3332C3.58505 19.362 4.25048 21.7999 5.74855 23.4201C6.51324 24.2478 7.19765 24.7239 8.5995 25.3813C10.0338 26.0563 10.7671 26.28 11.9553 26.3997C12.7389 26.4818 14.2295 26.4489 14.4378 26.3476C14.5265 26.3045 14.6524 26.0927 14.8176 25.7167C15.5212 24.1139 16.8838 23.0722 19.4719 22.1487C20.5041 21.7808 23.1905 21.0104 24.473 20.7161C26.0539 20.3492 26.2874 20.2803 27.4821 19.8446C28.0406 19.64 28.5396 19.47 28.593 19.4719C28.6756 19.4652 28.7486 19.5469 29.0984 20.0407C29.9548 21.2532 30.6808 22.5014 31.1462 23.547C31.3276 23.9497 31.4707 24.293 31.4635 24.3076C31.4602 24.3204 31.278 24.3085 31.0595 24.2809C30.3161 24.1737 30.102 24.155 29.4894 24.1404C28.7227 24.1227 27.5881 24.2112 26.695 24.3553C25.9292 24.4765 23.7282 24.9608 22.9903 25.1689C22.3906 25.3377 21.4876 25.7655 21.1128 26.0537C20.7915 26.3047 20.8415 26.3195 21.4127 26.1311C22.8584 25.6625 23.6959 25.4729 24.7226 25.3978C28.2629 25.1383 29.175 25.1021 30.2944 25.1883C31.093 25.252 31.6598 25.339 32.2798 25.5062C32.5098 25.5674 32.7034 25.6127 32.715 25.607C32.7613 25.5846 32.5972 25.0116 32.3885 24.4548C32.0154 23.4815 30.9901 21.5979 29.9763 20.0323C29.5515 19.3741 29.181 18.7788 29.158 18.7119C29.1175 18.6089 29.1579 18.5056 29.4063 18.0947C30.0688 16.9861 30.3897 16.1161 30.4408 15.26C30.5871 12.9129 30.5186 11.8305 30.1386 10.4309C29.9439 9.7167 29.3385 8.47134 28.9343 7.95378C28.6103 7.54228 28.1202 7.08325 27.7101 6.80846C27.3918 6.59502 26.7345 6.31205 26.3692 6.22746C25.7546 6.09111 24.8783 6.09313 24.1311 6.23323C23.646 6.324 22.6617 6.74118 22.2885 7.02299C21.976 7.25301 21.992 7.25641 21.7142 6.8615C21.0202 5.86559 19.6657 4.92305 18.4532 4.58648C17.6147 4.35254 16.832 4.37045 15.8721 4.64184C15.3561 4.7867 13.4081 5.68345 12.8912 6.01283ZM16.2631 5.74039C17.7814 5.3426 19.1391 5.74247 20.4425 6.97207C20.6266 7.14477 20.9122 7.45776 21.0759 7.65712L21.3741 8.02537L21.2282 8.35291C21.0016 8.84797 20.8976 9.42848 20.9274 9.99974C20.9642 10.6345 21.0522 10.9822 21.3176 11.5282L21.5326 11.9704L21.5222 11.5961C21.5033 11.1256 21.5909 10.4526 21.7155 10.0517C21.9768 9.21623 22.4435 8.38133 22.8669 7.99698C23.7435 7.19148 25.0069 6.82836 26.1134 7.0547C26.58 7.15143 27.2625 7.46674 27.6538 7.76181C28.868 8.70006 29.5931 10.4563 29.7111 12.7586C29.7562 13.685 29.7 14.3148 29.492 15.1913C29.1907 16.4646 28.5301 17.7732 27.9833 18.1784L27.829 18.2925L27.8835 17.9927C27.9753 17.446 27.8626 16.7532 27.5796 16.1712L27.4612 15.9275L27.4442 16.1868C27.4255 16.4916 27.0115 17.7192 26.7646 18.2019C26.6712 18.3923 26.5029 18.6638 26.3975 18.8099C26.2253 19.0442 26.174 19.0859 25.9565 19.1582C25.7389 19.2304 23.3975 19.7885 23.2522 19.8034C23.2186 19.803 23.2703 19.5268 23.3684 19.15C23.5701 18.3881 23.5957 17.9405 23.4677 17.2162C23.3206 16.384 22.8572 15.4601 22.3318 14.968L22.1642 14.8096L22.2825 15.1705C22.5332 15.9412 22.7013 16.7185 22.7306 17.2398C22.7551 17.7021 22.7339 17.8351 22.5543 18.5249C22.2262 19.7722 21.9089 20.2277 21.3281 20.2981C21.0418 20.3368 20.6893 20.4356 20.0416 20.6724C18.837 21.1074 17.8901 21.484 17.0847 21.8477C16.0998 22.293 15.9808 22.3229 15.1331 22.3445C13.6425 22.3775 12.1794 22.0846 10.8039 21.4814C9.97893 21.1182 9.97893 21.1182 10.241 21.3924C11.504 22.7253 12.699 23.3103 14.3056 23.3884L14.8141 23.4145L14.4364 23.8045C13.9819 24.282 13.6713 24.6729 13.5812 24.8897L13.5143 25.0561L13.1355 25.1007C12.4374 25.1947 11.0077 25.0194 9.89532 24.7123C9.261 24.5353 8.24794 24.0795 7.72015 23.7391C7.18797 23.3898 6.63347 22.9063 6.23581 22.4413C5.98865 22.1487 5.87944 21.973 5.60079 21.4391C5.29802 20.8555 5.25528 20.748 5.14437 20.2942C4.92474 19.3913 4.93686 18.1805 5.16991 17.4535C5.45724 16.544 6.20532 15.6114 6.70138 15.5431C6.99539 15.5006 7.00144 15.5033 7.02765 15.9201C7.04378 16.1298 7.11878 16.6568 7.19339 17.0947C7.3361 17.9178 7.38145 18.4034 7.33846 18.7367C7.3127 18.978 7.33584 18.9667 7.46293 18.6985C7.61655 18.3672 7.75153 17.6936 7.84732 16.7823C8.03503 14.9618 8.25011 13.8252 8.5782 12.9014C9.38262 10.6528 11.2156 8.48978 13.6271 6.93814C14.1308 6.62077 15.7835 5.86199 16.2631 5.74039Z" fill="#6D6B6B"/>
<path d="M14.8022 28.1566C14.7806 28.8086 14.9585 29.6649 15.2659 30.4248C15.4248 30.8105 15.9471 31.7672 16.3143 32.3362C16.4082 32.4802 16.5861 32.6894 16.7081 32.803C16.9603 33.0374 17.5125 33.3101 17.8811 33.3819C18.6481 33.5278 20.0698 33.2942 21.4253 32.797C22.7962 32.2923 23.4457 32.0101 24.027 31.6661C24.7731 31.2197 26.9595 29.6659 26.8009 29.6928C26.7343 29.7029 26.2959 29.8602 25.8271 30.0435C25.3562 30.2222 24.5906 30.5107 24.1191 30.6786C23.6515 30.8445 22.8203 31.1649 22.2684 31.383C20.7448 31.9954 19.928 32.2474 19.2211 32.3233C18.3964 32.4118 18.0093 32.2039 17.9866 31.6571C17.9715 31.2238 18.1814 30.7926 18.606 30.3909C18.8249 30.1841 18.9786 30.0982 19.8209 29.6831C20.9007 29.1582 21.5077 28.9357 22.9186 28.5622C24.4093 28.1666 25.7891 27.9254 27.6665 27.7268C29.7717 27.5067 30.3416 27.3747 31.5833 26.8101C32.0565 26.5968 32.4306 26.4149 32.4125 26.407C32.3943 26.3991 32.1206 26.4541 31.8024 26.5251C30.2622 26.8778 29.6395 26.9406 28.3946 26.8708C26.6015 26.7718 25.2725 26.8823 23.3541 27.2906C21.9924 27.5788 21.0468 27.86 19.9875 28.2801C18.5141 28.8681 17.2717 29.7844 16.8586 30.5821C16.7757 30.7451 16.6879 30.8882 16.6725 30.8957C16.6301 30.9164 16.2601 30.3319 15.6796 29.3144C15.4141 28.8465 15.1079 28.3148 15.0026 28.1373L14.8111 27.812L14.8022 28.1566Z" fill="#6D6B6B"/>
</svg>
